
        <svg xmlns="http://www.w3.org/2000/svg" xmlns:xlink="http://www.w3.org/1999/xlink" version="1.1" width="3200" 
        height="1000.3694163753421" viewBox="0 0 3200 1000.3694163753421">
			
			<g transform="scale(10) translate(10, 10)">
				<defs id="SvgjsDefs6794"><linearGradient id="SvgjsLinearGradient6799"><stop id="SvgjsStop6800" stop-color="#ef4136" offset="0"></stop><stop id="SvgjsStop6801" stop-color="#fbb040" offset="1"></stop></linearGradient></defs><g id="SvgjsG6795" featureKey="uHI19F-0" transform="matrix(1.000002956399121,0,0,1.000002956399121,-9.999418256947132,-9.959317087061853)" fill="url(#SvgjsLinearGradient6799)"><path xmlns="http://www.w3.org/2000/svg" d="M89.107,47.162c0-3.13-2.564-5.676-5.717-5.676c-1.094,0-2.114,0.312-2.984,0.844c-1.289-1.366-2.687-2.745-4.181-4.124  C87.483,27.81,92.26,18.611,88.988,13.528c-3.401-5.285-13.836-4.226-25.889,0.32c-4.298-2.816-9.366-4.17-14.628-3.84  c-4.19,0.26-8.095,1.656-11.451,3.848C23.81,8.87,14.089,8.749,11.012,13.528c-1.016,1.578-1.269,3.565-0.752,5.906  c1.149,5.197,6.117,11.93,13.515,18.768c-1.386,1.282-2.701,2.569-3.926,3.856c-0.753-0.363-1.594-0.572-2.485-0.572  c-3.152,0-5.717,2.546-5.717,5.676c0,1.37,0.491,2.628,1.307,3.61c-0.003,0.005-0.009,0.008-0.012,0.013  c-3.091,5.075-3.758,9.259-1.93,12.098c1.515,2.354,4.59,3.524,8.882,3.524c4.683-0.001,10.825-1.409,17.953-4.179  c0.069,0.581,0.113,1.167,0.139,1.76h-0.317c-2.206,0-4.001,1.795-4.001,4.001c0,1.812,1.219,3.329,2.874,3.819v8.557  c0,2.001,1.628,3.629,3.63,3.629h0.199v1.338c0,2.571,2.093,4.664,4.665,4.664h9.93c2.571,0,4.664-2.093,4.664-4.664v-1.338h0.2  c2.001,0,3.629-1.628,3.629-3.629v-8.556c1.656-0.49,2.875-2.007,2.875-3.82c0-2.206-1.795-4.001-4.001-4.001h-0.317  c0.025-0.588,0.07-1.171,0.139-1.748c6.955,2.696,13.167,4.136,17.947,4.135c4.244,0,7.365-1.126,8.887-3.491  c1.77-2.749,1.193-6.763-1.652-11.622C88.425,50.226,89.107,48.773,89.107,47.162z M87.107,47.162c0,2.028-1.667,3.678-3.717,3.678  s-3.717-1.649-3.717-3.678c0-2.026,1.667-3.676,3.717-3.676S87.107,45.136,87.107,47.162z M87.307,14.61  c2.635,4.093-2.3,12.798-12.568,22.25c-0.278-0.247-0.552-0.493-0.836-0.74c0.064-0.714,0.101-1.432,0.101-2.156  c0-6.598-2.759-12.975-7.568-17.495c-0.464-0.436-0.945-0.844-1.436-1.239C76.557,11.101,84.999,11.026,87.307,14.61z   M28.213,36.932c4.231-3.601,9.043-7.126,14.252-10.422c7.277-4.604,14.184-8.065,20.322-10.451  c0.791,0.569,1.555,1.188,2.279,1.868c4.475,4.205,6.938,9.9,6.938,16.038c0,5.581-2.093,10.902-5.893,14.985  c-2.732,2.936-4.593,6.566-5.5,10.527c-5.577-2.332-11.718-5.507-18.147-9.575c-4.956-3.136-9.566-6.516-13.626-9.927  C28.557,38.981,28.351,37.965,28.213,36.932z M48.594,12.004c4.338-0.27,8.517,0.7,12.172,2.761  c-6.367,2.592-13.077,6.073-19.37,10.055c-4.843,3.064-9.337,6.329-13.369,9.671c-0.011-0.466-0.033-0.93-0.015-1.4  C28.441,21.956,37.482,12.693,48.594,12.004z M12.213,19.003c-0.397-1.801-0.236-3.278,0.48-4.393  c2.404-3.734,10.924-3.455,22.37,0.664c-5.274,4.245-8.776,10.635-9.05,17.741c-0.04,1.046-0.007,2.083,0.084,3.109  c-0.277,0.24-0.547,0.482-0.818,0.723C18.13,30.263,13.273,23.804,12.213,19.003z M17.363,43.486c2.05,0,3.717,1.649,3.717,3.676  c0,2.028-1.667,3.678-3.717,3.678s-3.717-1.649-3.717-3.678C13.646,45.136,15.313,43.486,17.363,43.486z M12.693,61.801  c-1.703-2.646,0.005-6.701,1.811-9.729c0.842,0.486,1.817,0.768,2.859,0.768c3.152,0,5.717-2.547,5.717-5.678  c0-1.52-0.609-2.9-1.592-3.92c1.182-1.232,2.44-2.465,3.774-3.694c0.594,0.527,1.197,1.054,1.818,1.58  c1.063,3.412,2.888,6.565,5.404,9.248c2.532,2.701,4.239,6.099,5.032,9.838C24.977,65.152,15.258,65.785,12.693,61.801z   M57.629,85.331c0,1.469-1.195,2.664-2.664,2.664h-9.93c-1.47,0-2.665-1.195-2.665-2.664v-1.338h15.259V85.331z M59.829,81.993  H40.171c-0.898,0-1.63-0.73-1.63-1.629v-8.375h22.917v8.375C61.458,81.263,60.728,81.993,59.829,81.993z M64.333,67.988  c0,1.104-0.897,2.001-2.001,2.001H37.668c-1.104,0-2.001-0.897-2.001-2.001s0.897-2.001,2.001-2.001h24.664  C63.436,65.987,64.333,66.885,64.333,67.988z M60.015,63.987h-20.03c-0.224-5.731-2.334-11.021-6.043-14.978  c-1.492-1.592-2.715-3.366-3.66-5.266c3.411,2.689,7.141,5.336,11.112,7.848c6.5,4.113,12.914,7.438,18.847,9.888  C60.124,62.305,60.049,63.141,60.015,63.987z M87.307,61.801c-2.472,3.839-11.982,3.482-24.82-1.563  c0.799-3.744,2.526-7.171,5.089-9.924c3.099-3.332,5.156-7.419,5.997-11.815c1.935,1.724,3.721,3.45,5.332,5.155  c-0.769,0.967-1.232,2.184-1.232,3.509c0,3.131,2.564,5.678,5.717,5.678c0.81,0,1.58-0.17,2.279-0.474  C87.394,55.334,88.96,59.233,87.307,61.801z"></path></g><g id="SvgjsG6796" featureKey="8FbbNb-0" transform="matrix(2.7129670997474706,0,0,2.7129670997474706,96.31036567576677,5.760720242757898)" fill="#111111"><path d="M6.32 10.28 c1.0667 0 1.9033 0.32 2.51 0.96 s0.91666 1.5 0.93 2.58 l0 6.18 l-1.8 0 l0 -5.66 c0 -0.73334 -0.19 -1.3133 -0.57 -1.74 s-0.91 -0.64 -1.59 -0.64 c-0.84 0 -1.49 0.28 -1.95 0.84 s-0.69 1.3067 -0.69 2.24 l0 4.96 l-1.8 0 l0 -9.48 l1.8 0 l0 1.46 l0.04 0 c0.25334 -0.53334 0.66334 -0.95 1.23 -1.25 s1.1967 -0.45 1.89 -0.45 z M16.82 10.28 c1.4533 0 2.5834 0.45664 3.39 1.37 s1.2167 2.17 1.23 3.77 l0 0.5 l-7.6 0 c0 0.77334 0.31 1.4233 0.93 1.95 s1.3767 0.79666 2.27 0.81 c0.98666 0 1.8533 -0.47334 2.6 -1.42 l1.36 1.04 c-1.0133 1.2933 -2.4134 1.94 -4.2 1.94 c-1.4533 0 -2.6234 -0.46334 -3.51 -1.39 s-1.3433 -2.1234 -1.37 -3.59 c0 -1.4133 0.45666 -2.59 1.37 -3.53 s2.09 -1.4233 3.53 -1.45 z M19.520000000000003 14.48 c-0.02666 -0.89334 -0.28 -1.5767 -0.76 -2.05 s-1.14 -0.71 -1.98 -0.71 c-0.56 0 -1.0633 0.13666 -1.51 0.41 s-0.79666 0.62668 -1.05 1.06 s-0.38 0.86334 -0.38 1.29 l5.68 0 z M28.28 10.28 c0.33334 0 0.6 0.04 0.8 0.12 l-0.08 1.94 c-0.34666 -0.09334 -0.64666 -0.14 -0.9 -0.14 c-1.7733 0 -2.6734 0.98666 -2.7 2.96 l0 4.84 l-1.8 0 l0 -9.48 l1.8 0 l0 1.46 l0.04 0 c0.24 -0.50666 0.62666 -0.91666 1.16 -1.23 s1.0933 -0.47 1.68 -0.47 z M40.14 4.880000000000001 l-0.000019531 15.12 l-1.8 0 l0 -1.36 l-0.04 0 c-0.34666 0.50666 -0.81666 0.9 -1.41 1.18 s-1.2233 0.42 -1.89 0.42 c-1.4267 -0.01334 -2.5834 -0.48668 -3.47 -1.42 s-1.3367 -2.12 -1.35 -3.56 c0 -1.4533 0.44334 -2.64 1.33 -3.56 s2.05 -1.3933 3.49 -1.42 c0.65334 0 1.28 0.14 1.88 0.42 s1.0733 0.67334 1.42 1.18 l0.04 0 l0 -7 l1.8 0 z M32.1 15.26 c0 0.97334 0.28666 1.7633 0.86 2.37 s1.3267 0.91666 2.26 0.93 c0.94666 0 1.7033 -0.30334 2.27 -0.91 s0.85 -1.4033 0.85 -2.39 c0 -0.97334 -0.28 -1.7633 -0.84 -2.37 s-1.3267 -0.91666 -2.3 -0.93 c-0.93334 0 -1.6833 0.30666 -2.25 0.92 s-0.85 1.4067 -0.85 2.38 z M44.68000000000001 4.880000000000001 l0.000019531 7.1 l0.04 0 c0.25334 -0.53334 0.66334 -0.95 1.23 -1.25 s1.1967 -0.45 1.89 -0.45 c1.0533 0 1.89 0.32 2.51 0.96 s0.93 1.5 0.93 2.58 l0 6.18 l-1.8 0 l0 -5.66 c0 -0.73334 -0.19 -1.3133 -0.57 -1.74 s-0.91 -0.64 -1.59 -0.64 c-0.84 0 -1.4867 0.27334 -1.94 0.82 s-0.68668 1.3 -0.70002 2.26 l0 4.96 l-1.8 0 l0 -15.12 l1.8 0 z M55.8 10.52 l0 5.68 c0 0.74666 0.19666 1.3267 0.59 1.74 s0.91668 0.62 1.57 0.62 c0.84 0 1.49 -0.27666 1.95 -0.83 s0.69 -1.3033 0.69 -2.25 l0 -4.96 l1.8 0 l0 9.48 l-1.8 0 l0 -1.46 l-0.04 0 c-0.25334 0.53334 -0.66668 0.95 -1.24 1.25 s-1.2 0.45 -1.88 0.45 c-1.0533 0 -1.89 -0.32666 -2.51 -0.98 s-0.93 -1.5067 -0.93 -2.56 l0 -6.18 l1.8 0 z M66.92 4.880000000000001 l0.000019531 7 l0.04 0 c0.32 -0.49334 0.78334 -0.88334 1.39 -1.17 s1.2433 -0.43 1.91 -0.43 c1.4267 0 2.5866 0.47 3.48 1.41 s1.34 2.13 1.34 3.57 c0 1.4267 -0.43666 2.6066 -1.31 3.54 s-2.0366 1.4133 -3.49 1.44 c-0.65334 0 -1.2833 -0.14 -1.89 -0.42 s-1.0833 -0.67334 -1.43 -1.18 l-0.04 0 l0 1.36 l-1.8 0 l0 -15.12 l1.8 0 z M66.92 15.26 c0 0.98666 0.28338 1.7767 0.85004 2.37 s1.3233 0.90334 2.27 0.93 c0.94666 0 1.7033 -0.30666 2.27 -0.92 s0.85 -1.4067 0.85 -2.38 s-0.28 -1.7633 -0.84 -2.37 s-1.3267 -0.91666 -2.3 -0.93 c-0.94666 0 -1.7 0.31 -2.26 0.93 s-0.84 1.41 -0.84 2.37 z"></path></g>
			</g>
		</svg>
	